<svg width="90" height="90" viewBox="0 0 87 90" fill="none" xmlns="http://www.w3.org/2000/svg">
    <path d="M6.00065 0.94664C6.46089 0.94664 6.83398 1.31974 6.83398 1.77997C6.83398 2.24021 6.46089 2.61331 6.00065 2.61331L1.00065 2.61331C0.540413 2.61331 0.167317 2.24021 0.167317 1.77997C0.167317 1.31974 0.540414 0.94664 1.00065 0.94664L6.00065 0.94664Z" fill="#777B7E"/>
    <path d="M1.83398 6.77998C1.83398 7.24022 1.46089 7.61331 1.00065 7.61331C0.540413 7.61331 0.167317 7.24022 0.167317 6.77998L0.167318 1.77998C0.167318 1.31974 0.540414 0.946645 1.00065 0.946645C1.46089 0.946645 1.83398 1.31974 1.83398 1.77998L1.83398 6.77998Z" fill="#777B7E"/>
    <path d="M86.834 7.16673C86.834 7.62697 86.4609 8.00006 86.0007 8.00006C85.5404 8.00006 85.1673 7.62696 85.1673 7.16673L85.1673 2.16673C85.1673 1.70649 85.5404 1.33339 86.0007 1.33339C86.4609 1.33339 86.834 1.70649 86.834 2.16673L86.834 7.16673Z" fill="#777B7E"/>
    <path d="M80.9993 3.00005C80.5391 3.00005 80.166 2.62695 80.166 2.16671C80.166 1.70647 80.5391 1.33338 80.9993 1.33338L85.9993 1.33338C86.4596 1.33338 86.8327 1.70648 86.8327 2.16671C86.8327 2.62695 86.4596 3.00005 85.9993 3.00005L80.9993 3.00005Z" fill="#777B7E"/>
    <path d="M81.0013 89.2201C80.5411 89.2201 80.168 88.847 80.168 88.3868C80.168 87.9266 80.5411 87.5535 81.0013 87.5535L86.0013 87.5535C86.4615 87.5535 86.8346 87.9266 86.8346 88.3868C86.8346 88.847 86.4615 89.2201 86.0013 89.2201L81.0013 89.2201Z" fill="#777B7E"/>
    <path d="M85.168 83.3868C85.168 82.9265 85.5411 82.5534 86.0013 82.5534C86.4615 82.5534 86.8346 82.9265 86.8346 83.3868L86.8346 88.3868C86.8346 88.847 86.4615 89.2201 86.0013 89.2201C85.5411 89.2201 85.168 88.847 85.168 88.3868L85.168 83.3868Z" fill="#777B7E"/>
    <path d="M0.167969 83.0001C0.167969 82.5398 0.541065 82.1667 1.0013 82.1667C1.46154 82.1667 1.83464 82.5398 1.83464 83.0001L1.83464 88.0001C1.83463 88.4603 1.46154 88.8334 1.0013 88.8334C0.541064 88.8334 0.167968 88.4603 0.167968 88.0001L0.167969 83.0001Z" fill="#777B7E"/>
    <path d="M6.0026 87.1667C6.46284 87.1667 6.83594 87.5398 6.83594 88.0001C6.83594 88.4603 6.46284 88.8334 6.0026 88.8334L1.0026 88.8334C0.542366 88.8334 0.16927 88.4603 0.16927 88C0.16927 87.5398 0.542367 87.1667 1.0026 87.1667L6.0026 87.1667Z" fill="#777B7E"/>
</svg>
