<svg width="167" height="19" fill="none" xmlns="http://www.w3.org/2000/svg">
<g clip-path="url(#clip0_2167_489)">
<g clip-path="url(#clip1_2167_489)">
<path d="M71.1646 19C69.3887 19.0252 67.6349 18.6056 66.0645 17.7797C64.5803 17 63.3402 15.8288 62.4799 14.3943C61.6 12.9139 61.1485 11.22 61.1752 9.49994C61.1485 7.77991 61.6 6.08602 62.4799 4.60558C63.3402 3.17108 64.5803 1.99988 66.0645 1.22017C67.6436 0.392243 69.4064 -0.0273715 71.1909 -0.000141329C72.679 -0.0219605 74.1554 0.264017 75.5268 0.839692C76.7879 1.37723 77.9032 2.20462 78.7813 3.25407L76.0407 5.77341C74.7931 4.33844 73.2469 3.62095 71.4019 3.62095C70.335 3.60261 69.2817 3.86052 68.345 4.36942C67.4628 4.85414 66.7362 5.57752 66.2494 6.45596C65.7384 7.3888 65.4795 8.43783 65.4982 9.50025C65.4796 10.5626 65.7384 11.6115 66.2494 12.5442C66.7362 13.4227 67.4628 14.146 68.345 14.6308C69.2819 15.1396 70.3355 15.3974 71.4026 15.3788C73.2475 15.3788 74.7938 14.6527 76.0415 13.2005L78.7826 15.7199C77.9074 16.7846 76.7859 17.6221 75.5142 18.1605C74.1378 18.7353 72.657 19.0211 71.1646 19ZM90.1946 19C88.3914 19.0272 86.6103 18.6031 85.0146 17.7666C83.5205 16.9852 82.2712 15.8094 81.4037 14.3681C80.526 12.8961 80.0745 11.2111 80.099 9.49946C80.0745 7.78784 80.526 6.10282 81.4037 4.63087C82.2715 3.19016 83.5207 2.015 85.0146 1.23408C86.6101 0.397888 88.391 -0.0260573 90.1938 0.00112375C91.9925 -0.0271329 93.7694 0.396939 95.3598 1.23408C96.8503 2.02042 98.0984 3.19507 98.9707 4.63261C99.8564 6.10177 100.313 7.78787 100.288 9.5012C100.313 11.2145 99.8564 12.9006 98.9707 14.3698C98.0984 15.8073 96.8503 16.982 95.3598 17.7683C93.7695 18.6049 91.993 19.0285 90.1946 19ZM90.1946 15.3784C91.2276 15.3928 92.2461 15.1347 93.1465 14.6305C94.0174 14.1396 94.7338 13.4172 95.2156 12.5439C95.7267 11.6111 95.9855 10.562 95.9669 9.49962C95.9855 8.43719 95.7267 7.38816 95.2156 6.45533C94.7338 5.58208 94.0174 4.85961 93.1465 4.36879C92.246 3.86455 91.2276 3.60654 90.1946 3.62095C89.1616 3.60659 88.1431 3.86466 87.2426 4.36895C86.3718 4.85976 85.6554 5.58224 85.1735 6.45549C84.6625 7.38832 84.4036 8.43735 84.4223 9.49978C84.4035 10.5622 84.6624 11.6113 85.1734 12.5442C85.6552 13.4175 86.3716 14.14 87.2425 14.6308C88.143 15.135 89.1615 15.3929 90.1946 15.3784ZM120.426 0.314262V18.6851H116.921L107.722 7.53164V18.6851H103.505V0.314736H107.037L116.209 11.4681V0.314736L120.426 0.314262ZM129.072 3.72591V8.58091H137.611V11.9926H129.072V18.6851H124.801V0.314736H138.744V3.72639L129.072 3.72591ZM141.644 0.314736H145.914V18.6851H141.644V0.314736ZM162.756 9.21114H166.657V16.6642C165.608 17.4401 164.43 18.0264 163.178 18.3962C161.889 18.7942 160.547 18.9977 159.198 18.9999C157.4 19.0281 155.625 18.6086 154.032 17.7796C152.542 17.0028 151.297 15.8312 150.434 14.3941C149.554 12.9137 149.103 11.2198 149.129 9.49978C149.103 7.77975 149.554 6.08587 150.434 4.60542C151.302 3.16333 152.558 1.991 154.059 1.22017C155.67 0.391001 157.463 -0.0282246 159.277 -0.000141329C160.784 -0.0207473 162.28 0.255763 163.679 0.813452C164.958 1.32815 166.096 2.13761 167 3.17535L164.259 5.69469C162.941 4.3122 161.351 3.62095 159.488 3.62095C158.397 3.60039 157.319 3.85309 156.351 4.35583C155.455 4.82915 154.714 5.5489 154.217 6.42941C153.696 7.36821 153.432 8.42731 153.453 9.49994C153.434 10.564 153.698 11.6141 154.217 12.5442C154.714 13.4241 155.449 14.1471 156.339 14.6308C157.29 15.1407 158.356 15.3983 159.436 15.3788C160.592 15.3966 161.734 15.1259 162.757 14.5914L162.756 9.21114Z" fill="#1878F1"/>
<path d="M10.0946 18.9998C8.29172 19.027 6.51089 18.603 4.91539 17.7668C3.42128 16.9854 2.17201 15.8096 1.30443 14.3683C0.426771 12.8963 -0.0248268 11.2113 -0.000397977 9.49969C-0.0248748 7.78807 0.426668 6.10307 1.30428 4.6311C2.17185 3.18976 3.42112 2.01397 4.91523 1.23257C6.51073 0.396375 8.29156 -0.0275717 10.0944 -0.000383905C11.8931 -0.0286406 13.67 0.395433 15.2604 1.23257C16.7509 2.01891 17.999 3.19356 18.8713 4.6311C19.757 6.10026 20.2134 7.78636 20.189 9.49969C20.2134 11.213 19.757 12.8991 18.8713 14.3683C17.999 15.8058 16.7509 16.9805 15.2604 17.7668C13.67 18.6039 11.8932 19.028 10.0946 18.9998ZM10.0946 15.3782C11.1276 15.3926 12.146 15.1345 13.0465 14.6302C13.9173 14.1394 14.6338 13.4169 15.1156 12.5437C15.6266 11.6108 15.8855 10.5618 15.8668 9.49938C15.8855 8.43695 15.6266 7.38792 15.1156 6.45509C14.6338 5.58184 13.9173 4.85936 13.0465 4.36855C12.146 3.86431 11.1276 3.6063 10.0946 3.62071C9.06152 3.60635 8.04307 3.86441 7.1426 4.3687C6.27177 4.85952 5.55533 5.582 5.07351 6.45524C4.56246 7.38808 4.30359 8.43711 4.32227 9.49954C4.30356 10.562 4.56243 11.6111 5.07351 12.544C5.55533 13.4172 6.27177 14.1397 7.1426 14.6305C8.0431 15.1347 9.06155 15.3927 10.0946 15.3782ZM40.3264 0.314019V18.6849H36.821L27.6222 7.53139V18.6849H23.4051V0.314493H26.937L36.1094 11.4678V0.314493L40.3264 0.314019ZM58.9874 15.2732V18.6849H44.7017V0.314493H58.6448V3.72614H48.9447V7.71476H57.5108V11.0214H48.9447V15.2736L58.9874 15.2732Z" fill="#5187F1"/>
</g>
</g>
<defs>
<clipPath id="clip0_2167_489">
<rect width="167" height="19" fill="white"/>
</clipPath>
<clipPath id="clip1_2167_489">
<rect width="167" height="19" fill="white"/>
</clipPath>
</defs>
</svg>
