<svg width="16" height="16" fill="none" xmlns="http://www.w3.org/2000/svg">
    <path d="M6.66797 12V4C6.66797 3.37874 6.66797 3.06812 6.56648 2.82309C6.43115 2.49638 6.17158 2.23682 5.84488 2.10149C5.59985 2 5.28922 2 4.66797 2C4.04671 2 3.73609 2 3.49106 2.10149C3.16435 2.23682 2.90479 2.49638 2.76946 2.82309C2.66797 3.06812 2.66797 3.37874 2.66797 4V12C2.66797 12.6213 2.66797 12.9319 2.76946 13.1769C2.90479 13.5036 3.16435 13.7632 3.49106 13.8985C3.73609 14 4.04671 14 4.66797 14C5.28922 14 5.59985 14 5.84488 13.8985C6.17158 13.7632 6.43115 13.5036 6.56648 13.1769C6.66797 12.9319 6.66797 12.6213 6.66797 12Z" stroke="#8D96A5" stroke-width="1.5" stroke-linecap="round" stroke-linejoin="round"/>
    <path d="M13.3346 10.6667V5.33333C13.3346 4.71208 13.3346 4.40145 13.2331 4.15642C13.0978 3.82972 12.8383 3.57015 12.5115 3.43483C12.2665 3.33333 11.9559 3.33333 11.3346 3.33333C10.7134 3.33333 10.4028 3.33333 10.1577 3.43483C9.83102 3.57015 9.57145 3.82972 9.43613 4.15642C9.33464 4.40145 9.33464 4.71208 9.33464 5.33333V10.6667C9.33464 11.2879 9.33464 11.5986 9.43613 11.8436C9.57145 12.1703 9.83102 12.4298 10.1577 12.5652C10.4028 12.6667 10.7134 12.6667 11.3346 12.6667C11.9559 12.6667 12.2665 12.6667 12.5115 12.5652C12.8383 12.4298 13.0978 12.1703 13.2331 11.8436C13.3346 11.5986 13.3346 11.2879 13.3346 10.6667Z" stroke="#8D96A5" stroke-width="1.5" stroke-linecap="round" stroke-linejoin="round"/>
</svg>
