<svg width="16" height="16" fill="none" xmlns="http://www.w3.org/2000/svg">
    <path d="M8.67318 4.66667H3.47318C2.72644 4.66667 2.35307 4.66667 2.06786 4.81199C1.81697 4.93982 1.613 5.1438 1.48517 5.39468C1.33984 5.6799 1.33984 6.05326 1.33984 6.8V9.2C1.33984 9.94674 1.33984 10.3201 1.48517 10.6053C1.613 10.8562 1.81697 11.0602 2.06786 11.188C2.35307 11.3333 2.72644 11.3333 3.47318 11.3333H8.67318M11.3398 4.66667H12.5398C13.2866 4.66667 13.6599 4.66667 13.9452 4.81199C14.196 4.93982 14.4 5.1438 14.5279 5.39468C14.6732 5.6799 14.6732 6.05326 14.6732 6.8V9.2C14.6732 9.94674 14.6732 10.3201 14.5279 10.6053C14.4 10.8562 14.196 11.0602 13.9452 11.188C13.6599 11.3333 13.2866 11.3333 12.5398 11.3333H11.3398M11.3398 14L11.3398 2M13.0065 2.00001L9.67318 2M13.0065 14L9.67318 14" stroke="#8D96A5" stroke-width="1.5" stroke-linecap="round" stroke-linejoin="round"/>
</svg>
